# AST/ASF file generated using VICON BodyLanguage
# -----------------------------------------------
:version 1.10
:name VICON
:units
  mass 1.0
  length 0.45
  angle deg
:documentation
   .ast/.asf automatically generated from VICON data using
   VICON BodyBuilder and BodyLanguage model FoxedUp or BRILLIANT.MOD
:root
   order TX TY TZ RX RY RZ
   axis XYZ
   position 0 0 0  
   orientation 0 0 0 
:bonedata
  begin
     id 1 
     name lhipjoint
     direction 0.677091 -0.635792 0.370561 
     length 2.74323 
     axis 0 0 0  XYZ
  end
  begin
     id 2 
     name lfemur
     direction 0.34202 -0.939693 0  
     length 7.44995  
     axis 0 0 20  XYZ
    dof rx ry rz
    limits (-160.0 20.0)
           (-70.0 70.0)
           (-60.0 70.0)
  end
  begin
     id 3 
     name ltibia
     direction 0.34202 -0.939693 0   
     length 7.34467   
     axis 0 0 20   XYZ
    dof rx
    limits (-10.0 170.0)
  end
  begin
     id 4 
     name lfoot
     direction 0.101953 -0.280114 0.954537   
     length 1.72105   
     axis -90 7.62852e-016 20   XYZ
    dof rx rz
    limits (-45.0 90.0)
           (-70.0 20.0)
  end
  begin
     id 5 
     name ltoes
     direction 1.53537e-011 -4.21915e-011 1   
     length 0.865872   
     axis -90 7.62852e-016 20   XYZ
    dof rx
    limits (-90.0 20.0)
  end
  begin
     id 6 
     name rhipjoint
     direction -0.695735 -0.620586 0.361699   
     length 2.81045  
     axis 0 0 0  XYZ 
  end
  begin
     id 7 
     name rfemur
     direction -0.34202 -0.939693 0   
     length 7.29387   
     axis 0 0 -20   XYZ
    dof rx ry rz
    limits (-160.0 20.0)
           (-70.0 70.0)
           (-70.0 60.0)
  end
  begin
     id 8 
     name rtibia
     direction -0.34202 -0.939693 0   
     length 7.44935   
     axis 0 0 -20   XYZ
    dof rx
    limits (-10.0 170.0)
 end
 begin
     id 9 
     name rfoot
     direction -0.104163 -0.286184 0.952496   
     length 1.77731  
     axis -90 -7.62852e-016 -20   XYZ
    dof rx rz
    limits (-45.0 90.0)
           (-20.0 70.0)
  end
  begin
     id 10 
     name rtoes
     direction -1.5355e-011 -4.21888e-011 1   
     length 0.892424   
     axis -90 -7.62852e-016 -20   XYZ
    dof rx
    limits (-90.0 20.0)
  end
  begin
     id 11 
     name lowerback
     direction 0.0100202 0.997226 -0.0737589   
     length 2.16892   
     axis 0 0 0   XYZ
    dof rx ry rz
    limits (-20.0 45.0)
           (-30.0 30.0)
           (-30.0 30.0)
  end
  begin
     id 12 
     name upperback
     direction 0.00432398 0.999988 -0.00215019   
     length 2.17326   
     axis 0 0 0   XYZ
    dof rx ry rz
    limits (-20.0 45.0)
           (-30.0 30.0)
           (-30.0 30.0)
  end
  begin
     id 13 
     name thorax
     direction -0.00195047 0.999485 0.0320434   
     length 2.18139   
     axis 0 0 0   XYZ
    dof rx ry rz
    limits (-20.0 45.0)
           (-30.0 30.0)
           (-30.0 30.0)
  end
  begin
     id 14 
     name lowerneck
     direction 0.00782762 0.986241 0.165128   
     length 1.88415   
     axis 0 0 0   XYZ
    dof rx ry rz
    limits (-20.0 45.0)
           (-30.0 30.0)
           (-30.0 30.0)
  end
  begin
     id 15 
     name upperneck
     direction 0.00988667 0.981098 -0.193258   
     length 1.9242   
     axis 0 0 0   XYZ
    dof rx ry rz
    limits (-20.0 45.0)
           (-30.0 30.0)
           (-30.0 30.0)
  end
  begin
     id 16
     name head
     direction 0.00252199 0.996513 -0.0833958  
     length 1.93887  
     axis 0 0 0   XYZ
    dof rx ry rz
    limits (-20.0 45.0)
           (-30.0 30.0)
           (-30.0 30.0)
  end
  begin
     id 17 
     name lclavicle
     direction 0.929492 0.368193 -0.0218667  
     length 3.5955  
     axis 0 0 0   XYZ
    dof ry rz
    limits (-20.0 10.0)
           (0.0 20.0)
  end
  begin
     id 18 
     name lhumerus
     direction 1 -4.48972e-011 1.41911e-027   
     length 5.2795   
     axis 180 -30 -90   XYZ
    dof rx ry rz
    limits (-60.0 90.0)
           (-90.0 90.0)
           (-90.0 90.0)
  end
  begin
     id 19
     name lradius
     direction 1 -4.48963e-011 7.05772e-027   
     length 3.53504   
     axis 180 -30 -90   XYZ
    dof rx
    limits (-10.0 170.0)
  end
  begin
     id 20
     name lwrist
     direction 1 -4.48957e-011 9.54866e-027   
     length 1.76752   
     axis -7.69462e-015 90 90   XYZ
    dof ry
    limits (-180.0 0.0)
 end
  begin
     id 21 
     name lhand
     direction 1 -4.48979e-011 1.90973e-026   
     length 0.667948   
     axis -1.21857e-014 90 90   XYZ
    dof rx rz
    limits (-90.0 90.0)
           (-45.0 45.0)
  end
  begin
     id 22 
     name lfingers
     direction 1 -4.48987e-011 3.81946e-026   
     length 0.538517   
     axis -2.43714e-014 90 90   XYZ
    dof rx
    limits (0.0 90.0)
  end
  begin
     id 23
     name lthumb
     direction 0.707107 -6.34962e-011 0.707107   
     length 0.773206   
     axis -90 45 2.85299e-015   XYZ
    dof rx rz
    limits (-45.0 45.0)
           (-45.0 45.0)
  end
  begin
     id 24 
     name rclavicle
     direction -0.898763 0.414256 -0.143584   
     length 3.5176  
     axis 0 0 0   XYZ 
    dof ry rz
    limits (-10.0 20.0)
           (-20.0 0.0)
  end
  begin
     id 25 
     name rhumerus
     direction -1 -4.48971e-011 1.129e-027  
     length 5.25035   
     axis 180 30 90   XYZ
    dof rx ry rz
    limits (-90.0 60.0)
           (-90.0 90.0)
           (-90.0 90.0)
  end
  begin
     id 26 
     name rradius
     direction -1 -4.48955e-011 6.34664e-027   
     length 3.58884   
     axis 180 30 90   XYZ
    dof rx
    limits (-10.0 170.0)
  end
  begin
     id 27 
     name rwrist
     direction -1 -4.48966e-011 9.54866e-027   
     length 1.79442   
     axis -7.69462e-015 -90 -90   XYZ
    dof ry
    limits (-180.0 0.0)
  end
  begin
     id 28
     name rhand
     direction -1 -4.48973e-011 1.90973e-026   
     length 0.779235   
     axis -1.21857e-014 -90 -90   XYZ
    dof rx rz
    limits (-90.0 90.0)
           (-45.0 45.0)
  end
  begin
     id 29
     name rfingers
     direction -1 -4.48984e-011 3.81946e-026   
     length 0.62824   
     axis -2.43714e-014 -90 -90   XYZ
    dof rx
    limits (0.0 90.0)
  end
  begin
     id 30
     name rthumb
     direction -0.707107 -6.34968e-011 0.707107   
     length 0.90203   
     axis -90 -45 -2.85299e-015   XYZ
    dof rx rz
    limits (-45.0 45.0)
           (-45.0 45.0)
  end
:hierarchy
  begin
    root lhipjoint rhipjoint lowerback
    lhipjoint lfemur
    lfemur ltibia
    ltibia lfoot
    lfoot ltoes
    rhipjoint rfemur
    rfemur rtibia
    rtibia rfoot
    rfoot rtoes
    lowerback upperback
    upperback thorax
    thorax lowerneck lclavicle rclavicle
    lowerneck upperneck
    upperneck head
    lclavicle lhumerus
    lhumerus lradius
    lradius lwrist
    lwrist lhand lthumb
    lhand lfingers
    rclavicle rhumerus
    rhumerus rradius
    rradius rwrist
    rwrist rhand rthumb
    rhand rfingers
  end

#!OML:ASF I:\Random Stuff\random\construction\7_22_03\Session 2\subj1.ASF
:FULLY-SPECIFIED
:DEGREES
364
root 4.67659 17.5677 1.50737 -120.55 88.5507 -129.171
lowerback 2.77487 2.36434 0.719657
upperback -3.84455 3.23602 -0.187601
thorax -5.48334 1.58834 -0.839574
lowerneck -21.2443 -1.96005 -0.022734
upperneck 21.9908 -3.6272 3.94584
head 10.6752 -1.09228 0.882368
rclavicle 5.84427e-014 7.35503e-015
rhumerus -32.7391 -10.6209 -30.0089
rradius 23.7601
rwrist -0.815054
rhand -18.7784 25.7916
rfingers 7.12502
rthumb 7.51907 -4.05474
lclavicle 5.84427e-014 7.35503e-015
lhumerus -35.7424 5.57662 38.0594
lradius 38.9407
lwrist 59.3051
lhand -12.2207 56.2419
lfingers 7.12502
lthumb 13.8444 -274.239
rfemur -8.85636 23.3857 21.4657
rtibia 19.0797
rfoot -24.2512 -41.0463
rtoes 20.2179
lfemur -20.8855 -22.18 -14.6671
ltibia 30.1179
lfoot -17.4725 17.6675
ltoes -29.7978
365
root 4.66631 17.5703 1.5125 -122.705 88.4974 -131.33
lowerback 2.77128 2.36346 0.667022
upperback -3.84289 3.2328 -0.170634
thorax -5.48345 1.58931 -0.792307
lowerneck -21.1921 -1.97243 -0.0497745
upperneck 21.9793 -3.64865 4.00531
head 10.6637 -1.09722 0.905301
rclavicle -4.25368e-015 -2.13694e-015
rhumerus -32.5508 -6.73943 -31.5171
rradius 26.4245
rwrist -4.93477
rhand -18.9483 25.6188
rfingers 7.12502
rthumb 7.35501 -4.23334
lclavicle -4.25368e-015 -2.13694e-015
lhumerus -35.5239 3.85897 37.9675
lradius 42.6975
lwrist 61.3121
lhand -12.0863 56.5996
lfingers 7.12502
lthumb 13.9739 -273.89
rfemur -8.91471 23.3133 21.4794
rtibia 19.1072
rfoot -24.2261 -41.0487
rtoes 20.2156
lfemur -20.9211 -22.198 -14.6129
ltibia 30.0552
lfoot -17.3868 17.6101
ltoes -29.7581
366
root 4.6558 17.5744 1.51745 -126.191 88.4457 -134.809
lowerback 2.76594 2.35787 0.602872
upperback -3.84366 3.22145 -0.178975
thorax -5.48439 1.58614 -0.764173
lowerneck -21.1399 -1.98981 -0.0656891
upperneck 21.984 -3.68507 4.08095
head 10.6588 -1.10528 0.930059
rclavicle -2.89045e-014 5.01931e-015
rhumerus -32.669 -2.83484 -33.0363
rradius 29.7935
rwrist -9.80001
rhand -19.204 25.3603
rfingers 7.12502
rthumb 7.10824 -4.50034
lclavicle -2.89045e-014 5.01931e-015
lhumerus -35.2647 2.17556 37.8887
lradius 46.7605
lwrist 62.8804
lhand -12.4362 56.6981
lfingers 7.12502
lthumb 13.6366 -273.769
rfemur -8.95124 23.2095 21.4614
rtibia 19.1115
rfoot -24.2394 -41.0172
rtoes 20.4427
lfemur -20.9522 -22.0861 -14.6135
ltibia 30.0062
lfoot -17.2929 17.4142
ltoes -29.9041
367
root 4.64456 17.5765 1.52341 -129.197 88.3593 -137.775
lowerback 2.75347 2.34943 0.546607
upperback -3.81685 3.20632 -0.177362
thorax -5.45244 1.58105 -0.728658
lowerneck -21.1334 -1.99573 -0.0492414
upperneck 22.0142 -3.71949 4.16336
head 10.6715 -1.10744 0.952113
rclavicle 2.7291e-014 -3.62782e-015
rhumerus -32.9701 0.839779 -34.4449
rradius 33.7401
rwrist -14.9808
rhand -19.6424 25.0734
rfingers 7.12502
rthumb 6.68507 -4.80103
lclavicle 2.7291e-014 -3.62782e-015
lhumerus -34.9512 0.595608 37.8432
lradius 51.0153
lwrist 63.9654
lhand -13.0932 56.5823
lfingers 7.12502
lthumb 13.0034 -273.843
rfemur -8.94398 23.1 21.4935
rtibia 19.0946
rfoot -24.1712 -41.0338
rtoes 20.379
lfemur -20.9676 -22.0003 -14.5903
ltibia 29.9794
lfoot -17.1889 17.2478
ltoes -30.2809
368
root 4.63021 17.5761 1.53057 -131.68 88.2131 -140.22
lowerback 2.76284 2.31685 0.508448
upperback -3.80614 3.16211 -0.142315
thorax -5.45118 1.56138 -0.668115
lowerneck -21.1288 -1.98052 -0.0704302
upperneck 22.0934 -3.7225 4.28291
head 10.7035 -1.09214 0.999005
rclavicle -3.87785e-015 -4.62174e-015
rhumerus -33.2744 3.91652 -35.5749
rradius 38.0158
rwrist -19.6608
rhand -19.9193 24.6946
rfingers 7.12502
rthumb 6.41774 -5.18815
lclavicle -3.87785e-015 -4.62174e-015
lhumerus -34.6558 -1.05958 37.8431
lradius 55.4022
lwrist 64.7075
lhand -12.8191 56.7992
lfingers 7.12502
lthumb 13.2676 -273.643
rfemur -8.94119 22.9625 21.5812
rtibia 19.0661
rfoot -24.1122 -41.0517
rtoes 20.3629
lfemur -21.0322 -21.944 -14.4909
ltibia 29.9813
lfoot -17.1288 17.0332
ltoes -30.231
369
root 4.61837 17.5746 1.53585 -133.528 88.0565 -142.02
lowerback 2.75201 2.27849 0.518806
upperback -3.80198 3.11228 -0.120536
thorax -5.44187 1.53681 -0.64711
lowerneck -21.0664 -1.98924 -0.130428
upperneck 22.1631 -3.75246 4.43364
head 10.7233 -1.08918 1.05984
rclavicle -9.46867e-015 -7.7526e-015
rhumerus -33.6669 6.64219 -36.5221
rradius 42.685
rwrist -23.8593
rhand -19.9952 24.1529
rfingers 7.12502
rthumb 6.34446 -5.7321
lclavicle -9.46867e-015 -7.7526e-015
lhumerus -34.2869 -2.75144 37.8402
lradius 59.7703
lwrist 64.8988
lhand -12.3285 56.9658
lfingers 7.12502
lthumb 13.7404 -273.508
rfemur -8.88991 22.8243 21.6866
rtibia 19.0115
rfoot -24.0932 -41.0606
rtoes 20.4387
lfemur -21.0836 -21.9338 -14.3974
ltibia 30.0168
lfoot -17.102 16.8594
ltoes -30.0202
370
root 4.61045 17.5717 1.53909 -135.643 87.9428 -144.066
lowerback 2.69678 2.25824 0.540103
upperback -3.79069 3.08452 -0.147265
thorax -5.39614 1.522 -0.681663
lowerneck -21.0039 -2.04298 -0.220365
upperneck 22.2378 -3.84745 4.62921
head 10.7487 -1.11225 1.13201
rclavicle 4.033e-014 -2.93207e-015
rhumerus -34.1413 8.96078 -37.3101
rradius 47.614
rwrist -27.5134
rhand -20.0122 23.4782
rfingers 7.12502
rthumb 6.32805 -6.40724
lclavicle 4.033e-014 -2.93207e-015
lhumerus -33.7735 -4.44737 37.8418
lradius 64.1442
lwrist 64.6667
lhand -12.513 56.2277
lfingers 7.12502
lthumb 13.5626 -274.234
rfemur -8.77248 22.6987 21.7552
rtibia 18.9321
rfoot -24.0114 -41.0996
rtoes 20.2304
lfemur -21.084 -22.0796 -14.3729
ltibia 30.0693
lfoot -17.089 16.8857
ltoes -30.1068
371
root 4.60123 17.5697 1.54415 -136.918 87.8012 -145.274
lowerback 2.63872 2.23452 0.570528
upperback -3.80253 3.05494 -0.141307
thorax -5.37449 1.5067 -0.688024
lowerneck -20.8515 -2.08462 -0.326655
upperneck 22.2606 -3.90338 4.77302
head 10.7359 -1.12855 1.19429
rclavicle 3.302e-014 1.2921e-015
rhumerus -34.4125 10.6332 -37.9
rradius 52.3775
rwrist -30.2632
rhand -20.2353 22.7495
rfingers 7.12502
rthumb 6.11265 -7.14235
lclavicle 3.302e-014 1.2921e-015
lhumerus -33.2177 -6.18076 37.8822
lradius 68.6132
lwrist 64.4356
lhand -12.8692 56.4162
lfingers 7.12502
lthumb 13.2193 -274.023
rfemur -8.67072 22.5739 21.8628
rtibia 18.8512
rfoot -23.8344 -41.1666
rtoes 19.9321
lfemur -21.1016 -22.2133 -14.292
ltibia 30.1229
lfoot -17.0806 16.8877
ltoes -30.1505
372
root 4.59088 17.5705 1.5501 -136.836 87.6184 -145.129
lowerback 2.55295 2.20645 0.636922
upperback -3.79273 3.02247 -0.0976498
thorax -5.31457 1.48958 -0.673449
lowerneck -20.6661 -2.1435 -0.530493
upperneck 22.1816 -3.95093 4.92311
head 10.6811 -1.15304 1.27544
rclavicle 4.22573e-015 9.93923e-016
rhumerus -34.3752 11.9637 -38.3934
rradius 56.9237
rwrist -32.248
rhand -20.8154 22.2142
rfingers 7.12502
rthumb 5.55258 -7.69304
lclavicle 4.22573e-015 9.93923e-016
lhumerus -32.5572 -7.84337 37.9231
lradius 73.1086
lwrist 64.273
lhand -13.5626 56.5604
lfingers 7.12502
lthumb 12.5509 -273.837
rfemur -8.60591 22.4581 22.029
rtibia 18.7804
rfoot -23.657 -41.2255
rtoes 19.7941
lfemur -21.1381 -22.1562 -14.1479
ltibia 30.1695
lfoot -17.0748 16.706
ltoes -30.1241
